<svg xmlns="http://www.w3.org/2000/svg" width="98.31001" height="36" viewBox="0 0 98.31001 36"><rect x="0.47" y="0.47" width="35.05" height="35.05" fill="#ffd91b"/><path d="M11.27,16c-2-.51-6.25-2-6.7-2.52a7.38,7.38,0,0,1-3.17-4c-.41-1-.67-3.36-1-4.29C.25,4.66.12,4.25.02,3.92v10.3A9.17961,9.17961,0,0,1,1.91,14C4.59,14,9,15.46,11.27,16Z"/><path d="M26,33.31c-4.76-.87-6.36-6.73-6.36-6.73s-.12-.24-.07,0c.68,4.61.22,5.91-.91,7.36a9.9997,9.9997,0,0,1-2,2h-8c-1.63-4.22-1.39-6-1.39-6A8.91,8.91,0,0,1,9.53,24.2L12,21.68a62.30946,62.30946,0,0,1-6.75,3.53,6.33,6.33,0,0,1-4.06.46c-.42-.06-.79-.14-1.15-.22V36H36V33.3a30.62,30.62,0,0,1-4.21.24A21.68991,21.68991,0,0,1,26,33.31Z"/><path d="M27.53,20.94c3.6,1.24,4.19,2.33,4.19,2.33A18.92,18.92,0,0,1,35.46,31,12.84317,12.84317,0,0,0,36,32.19V17.75l-.14.2C32.1,21.57,29.41,21.46,27.53,20.94Z"/><path d="M.05.05V2.89a6.41991,6.41991,0,0,0,2.73.14A19.06006,19.06006,0,0,1,7.13,3c4.72.59,7.32,6.59,7.32,6.59a12.67961,12.67961,0,0,1,.86,1.54c.1.25.41.92.41.92.22.3.71.13.61-.1v-.27l-1-5A7.48,7.48,0,0,1,17.9.12h9.85c1.78,5.54-2,9.6-2.79,10.32,1.91-1.15,4.3-2.2,6.52-2a26,26,0,0,1,4.49.86V.05Z"/><path d="M26.48,15.13A2.13,2.13,0,0,0,24.13,13c-.46,0-1,.26-1.37-.77-.42-1.24,0-2.72-2.08-2.86-1.7-.12-1.85,1.1-3.15,1.51-.91.28-.81-.95-3.2-.64a2.54,2.54,0,0,0-1.87,1.12s-1,1.23.41,3.14a1.53,1.53,0,0,1-.31,1.77c-.7.81-2.17.59-2.28,2.84a1.77,1.77,0,0,0,1.46,1.77,1.67,1.67,0,0,1,1,.83,3.15,3.15,0,0,1-.1,1.61,2,2,0,0,0,.84,1.91c1.09,1,3.11-1.14,4.77.14.59.56.61,1,2.09,1,0,0,1.26.11,1.73-1.5a1.52993,1.52993,0,0,1,.54-.74,2,2,0,0,1,1.11-.33c1.69-.12,2.33-.63,2.55-2.74.19-1.81-1.81-1.85-1.46-2.93S26.15,18,26.48,15.13ZM21.72,17a1,1,0,0,1-.35.59l-.5.34-.19.12-.18.1s-.18.1-.26.13l.43.32s.59.45.73.58a.49.49,0,0,1,0,.61.69.69,0,0,1-.77.23,4.31,4.31,0,0,1-1.14-.81,1.57008,1.57008,0,0,0-.36-.33,1.30044,1.30044,0,0,0,0,.45v.15c0,.79-.16,1.21-.41,1.33a.66.66,0,0,1-.48.08c-.21-.07-.3-.2-.39-.46a3.87973,3.87973,0,0,1,.08-1.46h-.14l-.41.12-.67.19c-.51.17-.75.34-1.08-.05a.66.66,0,0,1-.15-.48c0-.29.49-.6.69-.69l.94-.36h.12l-.07-.08L17,17.27,16.7,17l-.08-.08a1.31,1.31,0,0,1-.48-.86.65.65,0,0,1,.22-.52.64.64,0,0,1,.55-.07,2,2,0,0,1,.92.81l.23.32a2.99969,2.99969,0,0,0,.29.36c.07.05.16.1.2.09a1.00043,1.00043,0,0,0,.1-.22l.34-.9a1.53,1.53,0,0,1,.76-.87.47.47,0,0,1,.4.13.75.75,0,0,1,.21.57.7105.7105,0,0,1,0,.2c0,.07-.36.81-.36.81s-.11.2-.14.27h0l.12-.08.2-.15.07-.06a5.62889,5.62889,0,0,1,.63-.38.8.8,0,0,1,.76.08A.46.46,0,0,1,21.72,17Z" fill="#fff"/><path d="M52.62,5.18h-.27l-.22-1a3,3,0,0,0-2-.54C48.94,3.69,48.1,5.05,48,7s.64,3.56,2.35,3.64A3.17,3.17,0,0,0,52.17,10l.39-1h.26l-.12,1.63a6,6,0,0,1-2.85.49c-1.95,0-3.53-1.29-3.46-4.08a3.63,3.63,0,0,1,3.3925-3.85289q.13358-.00849.2675-.00711a4.86,4.86,0,0,1,2.72.52Z"/><path d="M56.47,5.66c.21,0,1.46-.09,2,.54a1.84,1.84,0,0,1,.34,1.36v2.79l.88.28v.23c-.5,0-2.09.13-2.09.13l-.1-.94a1.76,1.76,0,0,1-1.66,1,1.47,1.47,0,0,1-1.63-1.29c-.11-1.09.93-1.67,1.92-1.83a8.89017,8.89017,0,0,1,1.38-.1V7.06a1,1,0,0,0-1-1c-.75,0-1.14.81-1.39,1.27l-.65-.87A3.05006,3.05006,0,0,1,56.47,5.66Zm-.93,4c.06.57.32.85.79.85a1.19,1.19,0,0,0,1.14-1.14V8.27a3.99991,3.99991,0,0,0-1.13.1,1.06,1.06,0,0,0-.80613,1.26387Z"/><path d="M60.4,6.1V5.89l2-.21.11.81a2.05,2.05,0,0,1,1.83-.93c1.8,0,1.72.92,1.72,2.26v2.55l.89.28v.22H63.9v-.22l.82-.28V8.21a5.1,5.1,0,0,0-.11-1.61.75.75,0,0,0-.84-.54,1.3,1.3,0,0,0-1.06.9,2.7899,2.7899,0,0,0-.15,1.13v2.28l.75.28v.22H60.44v-.22l.79-.28v-4Z"/><path d="M70.31,5.66c.2,0,1.45-.09,2,.54a1.84,1.84,0,0,1,.34,1.36v2.79l.88.28v.23c-.49,0-2.09.13-2.09.13l-.1-.94a1.74,1.74,0,0,1-1.65,1,1.48,1.48,0,0,1-1.68474-1.242L68,9.77c-.1-1.09.94-1.67,1.93-1.83a8.68966,8.68966,0,0,1,1.38-.1V7.07a1,1,0,0,0-1-1c-.75,0-1.13.81-1.39,1.27l-.65-.87A3.06,3.06,0,0,1,70.31,5.66Zm-.93,4c.06.57.31.85.78.85A1.18,1.18,0,0,0,71.3,9.37q.02751-.54966,0-1.1a4.08994,4.08994,0,0,0-1.14.1,1,1,0,0,0-.78,1.29Z"/><path d="M77.49,2.88V2.66l2.15-.18v7.87l.89.31v.22c-.49,0-2.1.11-2.1.11l-.08-1a1.82,1.82,0,0,1-1.5,1.1c-1.84.09-2.55-1.27-2.49-2.88A2.38,2.38,0,0,1,77,5.62a1.6,1.6,0,0,1,1.4.81V3.1ZM77,10.63c.45,0,1.35-.62,1.35-2.35,0-1.41-.38-2.21-1.23-2.26s-1.28,1-1.31,2.3S76.14,10.63,77,10.63Z"/><path d="M81.42,6.08V5.86l2.17-.18v4.68l.79.29v.22H81.51v-.22l.79-.29V6.31ZM83.59,3.7a.75.75,0,1,1-.75-.75A.75.75,0,0,1,83.59,3.7Z"/><path d="M87.83,5.66c.2,0,1.45-.09,2,.54a1.84,1.84,0,0,1,.34,1.36v2.79l.88.28v.23c-.49,0-2.09.13-2.09.13l-.09-.94a1.77,1.77,0,0,1-1.66,1,1.47,1.47,0,0,1-1.63-1.29c-.11-1.09.93-1.67,1.92-1.83a8.68966,8.68966,0,0,1,1.38-.1V7.06a1,1,0,0,0-1-1c-.75,0-1.13.81-1.39,1.27l-.65-.87A3.05994,3.05994,0,0,1,87.83,5.66Zm-.93,4c.06.57.31.85.78.85a1.18,1.18,0,0,0,1.14-1.14q.02751-.54966,0-1.1a4.09,4.09,0,0,0-1.14.1,1,1,0,0,0-.78,1.29Z"/><path d="M91.76,6.1V5.89l2-.21.11.81a2,2,0,0,1,1.82-.93c1.81,0,1.72.92,1.72,2.26v2.55l.9.28v.22H95.23v-.22l.83-.28V8.21A5.1002,5.1002,0,0,0,96,6.6a.76.76,0,0,0-.85-.54,1.28,1.28,0,0,0-1.05.9,2.76006,2.76006,0,0,0-.16,1.13v2.28l.75.28v.22H91.8v-.22l.78-.28v-4Z"/><path d="M52.62,15.77h-.27l-.22-1a3,3,0,0,0-2-.53c-1.23.06-2.07,1.42-2.18,3.32s.64,3.56,2.35,3.64a3.17,3.17,0,0,0,1.83-.62l.39-1h.26l-.12,1.63a6,6,0,0,1-2.85.49c-1.95,0-3.53-1.29-3.46-4.08a3.63,3.63,0,0,1,3.3925-3.85288q.13358-.00849.2675-.00712a5,5,0,0,1,2.72.52Z"/><path d="M56.47,16.24c.21,0,1.46-.09,2,.54a1.84,1.84,0,0,1,.34,1.36v2.79l.88.28v.23c-.5,0-2.09.13-2.09.13l-.1-.94a1.76,1.76,0,0,1-1.66,1,1.47,1.47,0,0,1-1.63-1.29c-.11-1.09.93-1.67,1.92-1.83a8.99965,8.99965,0,0,1,1.38-.09v-.78a1,1,0,0,0-1-1c-.75,0-1.14.81-1.39,1.27l-.65-.87A3.05006,3.05006,0,0,1,56.47,16.24Zm-.93,4c.06.57.32.85.79.85A1.19,1.19,0,0,0,57.47,20V18.9a3.99991,3.99991,0,0,0-1.13.1A1.06,1.06,0,0,0,55.54,20.24Z"/><path d="M60.4,16.68v-.21l2-.21.11.81a2.07,2.07,0,0,1,1.83-.93c1.8,0,1.72.92,1.72,2.26V21l.89.28v.22H63.9v-.22l.82-.28V18.79a5.1,5.1,0,0,0-.11-1.61.76.76,0,0,0-.84-.54,1.3,1.3,0,0,0-1.06.9,2.78993,2.78993,0,0,0-.15,1.13V21l.75.28v.22H60.44v-.22l.79-.28V17Z"/><path d="M71.9,17.86,71.65,17a1,1,0,0,0-.92-.42c-1,.06-1.29,1.49-1.32,2.18,0,1.13.26,2.38,1.27,2.39a2.23057,2.23057,0,0,0,1.61-.83l.24.29a2.16,2.16,0,0,1-1.82,1A2.51,2.51,0,0,1,68,18.74a2.62,2.62,0,0,1,2.69559-2.54216L70.75,16.2a2.31,2.31,0,0,1,1.58.4l-.14,1.28Z"/><path d="M76.44,21.19a2.48516,2.48516,0,0,0,1.68-.88l.24.3a2.67,2.67,0,0,1-4.8-1.85,2.53,2.53,0,0,1,2.76-2.56,2.26005,2.26005,0,0,1,2.1,2.62H75C75,19.79,75,21.15,76.44,21.19Zm.72-2.82c0-.84-.23-1.75-.87-1.79-.87-.08-1.17,1-1.27,1.79Z"/><path d="M79.49,16.68v-.21l2-.21.12.81a1.81,1.81,0,0,1,1.07-.81,1.78,1.78,0,0,1,1.3.19l-.44,1.19c-.28-.47-.51-.68-.81-.7-.77-.06-1.1.47-1.1,1.7v2.29l1,.3v.22H79.52v-.22l.79-.33v-4Z"/><path d="M51,26.36h-.24l-.23-.85A2,2,0,0,0,49,24.82c-.72.06-1.27.44-1.25,1.24s.78.94,1.44,1.13c1.15.34,2.41.81,2.27,2.78-.09,1.36-1,2.28-2.79,2.23a4.12,4.12,0,0,1-2.24-.68l.1-1.89h.22L47,30.84a2.22,2.22,0,0,0,1.78.9,1.37,1.37,0,0,0,1.39116-1.34851q.00063-.04076-.00116-.08149c.09-1.34-1.32-1.59-1.69-1.71a2.2607,2.2607,0,0,1-2-2.39c.11-1.18,1-1.74,2.5-1.81a4.86011,4.86011,0,0,1,2.05.41Z"/><path d="M58.34,29.37a2.82,2.82,0,1,1-5.63,0c.05-1.85,1.18-2.59,2.79-2.59S58.29,27.52,58.34,29.37Zm-2.82,2.48c1,0,1.32-1,1.31-2.4s-.32-2.27-1.31-2.27-1.31,1.06-1.31,2.27S54.53,31.85,55.52,31.85Z"/><path d="M63.46,28.44l-.25-.82a1,1,0,0,0-.92-.42c-1,.06-1.29,1.49-1.32,2.18,0,1.13.26,2.38,1.27,2.39a2.23057,2.23057,0,0,0,1.61-.83l.24.29a2.16,2.16,0,0,1-1.82,1,2.51,2.51,0,0,1-2.72-2.94,2.63,2.63,0,0,1,2.71575-2.54136L62.3,26.75a2.31,2.31,0,0,1,1.58.4l-.14,1.28Z"/><path d="M65.08,27.24V27l2.17-.18V31.5l.8.29V32H65.17v-.22l.8-.29V27.47Zm2.17-2.38a.75.75,0,1,1-.75-.75A.79.79,0,0,1,67.25,24.86Z"/><path d="M72,31.77a2.38,2.38,0,0,0,1.68-.88l.24.3a2.67,2.67,0,0,1-4.8-1.85,2.53,2.53,0,0,1,2.76-2.56A2.26,2.26,0,0,1,74,29.4H70.56C70.54,30.37,70.6,31.73,72,31.77ZM72.73,29c0-.84-.23-1.75-.87-1.79-.87-.08-1.18,1-1.27,1.79Z"/><path d="M77.28,25.48V27h1.26v.45H77.28v2.67c0,.77,0,1.25.3,1.48a1.12,1.12,0,0,0,1.07-.07l.1.32c-.57.43-2.06.57-2.52-.06-.32-.44-.24-1.11-.25-2.14v-2.2h-.9V27H76V25.81Z"/><path d="M82.21,27v.2l-.63.3,1.27,3s.57-1.3,1.29-3.06l-.65-.22V27h2.2v.2l-.73.26-3.44,7.68-1-.12a29.05427,29.05427,0,0,0,1.62-3s-2-4.52-2-4.55l-.75-.31V27Z"/><path d="M34.83,1.17V34.83H1.17V1.17H34.83M36,0H0V36H36Z"/></svg>